# This file uses centimeters as units for non-parametric coordinates.

mtllib p03.mtl
g default
v 27.072624 -5.418838 5.418838
v 37.910301 -5.418838 5.418838
v 27.072624 5.418838 5.418837
v 37.910301 5.418838 5.418837
v 27.072624 5.418838 -5.418838
v 37.910301 5.418837 -5.418838
v 27.072624 -5.418838 -5.418838
v 37.910301 -5.418838 -5.418838
v 25.647102 6.844360 -0.000000
v 39.335823 0.000000 -6.844360
v 32.491463 -6.844360 -6.844360
v 25.647102 -0.000000 -6.844360
v 39.335823 -6.844360 -0.000000
v 25.647102 -6.844360 0.000000
v 32.491463 -6.844360 6.844360
v 39.335823 -0.000000 6.844360
v 32.491463 6.844361 6.844360
v 25.647102 0.000000 6.844360
v 39.335823 6.844360 0.000000
v 32.491463 6.844360 -6.844360
v 32.491463 -0.000000 9.347495
v 32.491463 9.347495 -0.000000
v 32.491463 -0.000000 -9.347495
v 32.491463 -9.347495 0.000000
v 41.838959 -0.000000 0.000000
v 23.143967 -0.000000 -0.000000
v 29.018480 -3.472983 8.128257
v 35.964447 -3.472982 8.128258
v 35.964443 3.472982 8.128257
v 29.018480 3.472982 8.128257
v 29.018480 8.128257 3.472982
v 35.964443 8.128257 3.472982
v 35.964443 8.128257 -3.472982
v 29.018480 8.128257 -3.472982
v 29.018480 3.472982 -8.128257
v 35.964443 3.472982 -8.128257
v 35.964443 -3.472983 -8.128257
v 29.018480 -3.472982 -8.128257
v 29.018480 -8.128257 -3.472982
v 35.964443 -8.128257 -3.472982
v 35.964443 -8.128257 3.472982
v 29.018480 -8.128257 3.472982
v 40.619720 -3.472982 3.472982
v 40.619720 -3.472982 -3.472982
v 40.619720 3.472983 -3.472982
v 40.619720 3.472982 3.472982
v 24.363205 -3.472982 -3.472982
v 24.363205 -3.472982 3.472982
v 24.363205 3.472982 3.472982
v 24.363205 3.472982 -3.472982
v 32.491463 -3.731609 8.719402
v 36.223072 -0.000000 8.719402
v 32.491463 3.731609 8.719403
v 28.759853 0.000000 8.719401
v 32.491463 8.719402 3.731609
v 36.223072 8.719402 0.000000
v 32.491463 8.719403 -3.731609
v 28.759853 8.719401 -0.000000
v 32.491463 3.731609 -8.719402
v 36.223072 0.000000 -8.719402
v 32.491463 -3.731609 -8.719403
v 28.759853 -0.000000 -8.719401
v 32.491463 -8.719402 -3.731609
v 36.223072 -8.719402 -0.000000
v 32.491463 -8.719403 3.731609
v 28.759853 -8.719401 0.000000
v 41.210865 -3.731609 0.000000
v 41.210865 -0.000000 -3.731609
v 41.210865 3.731609 -0.000000
v 41.210865 0.000000 3.731609
v 23.772060 -3.731609 -0.000000
v 23.772060 -0.000000 3.731609
v 23.772060 3.731609 0.000000
v 23.772060 0.000000 -3.731609
v 29.277107 -6.373291 6.373291
v 35.705818 -6.373291 6.373291
v 38.864754 -3.214355 6.373291
v 38.864754 3.214355 6.373291
v 35.705818 6.373291 6.373291
v 29.277107 6.373291 6.373291
v 26.118172 3.214355 6.373291
v 26.118172 -3.214355 6.373291
v 38.864754 6.373291 3.214355
v 38.864754 6.373291 -3.214355
v 35.705818 6.373291 -6.373291
v 29.277107 6.373291 -6.373291
v 26.118172 6.373291 -3.214355
v 26.118172 6.373291 3.214355
v 38.864754 3.214355 -6.373291
v 38.864754 -3.214355 -6.373291
v 35.705818 -6.373291 -6.373291
v 29.277107 -6.373291 -6.373291
v 26.118172 -3.214355 -6.373291
v 26.118172 3.214355 -6.373291
v 38.864754 -6.373291 -3.214355
v 38.864754 -6.373291 3.214355
v 26.118172 -6.373291 3.214355
v 26.118172 -6.373291 -3.214355
vt 0.199863 0.023406
vt 0.243904 0.006584
vt 0.249343 0.055567
vt 0.200900 0.062357
vt 0.301166 0.000000
vt 0.301124 0.050646
vt 0.301080 0.103754
vt 0.250121 0.106205
vt 0.202957 0.110602
vt 0.358417 0.006679
vt 0.352896 0.055653
vt 0.402430 0.023574
vt 0.401329 0.062525
vt 0.399191 0.110766
vt 0.352034 0.106290
vt 0.350056 0.156247
vt 0.301036 0.156065
vt 0.395979 0.159436
vt 0.390877 0.200529
vt 0.349904 0.202765
vt 0.300997 0.203074
vt 0.252016 0.156165
vt 0.206088 0.159278
vt 0.252090 0.202684
vt 0.211120 0.200379
vt 0.248203 0.249788
vt 0.198000 0.243877
vt 0.300957 0.250256
vt 0.300916 0.300495
vt 0.244734 0.300099
vt 0.192857 0.299487
vt 0.353713 0.249876
vt 0.403925 0.244049
vt 0.408975 0.299667
vt 0.357098 0.300193
vt 0.353189 0.350647
vt 0.300874 0.350844
vt 0.403124 0.355176
vt 0.388792 0.398280
vt 0.349518 0.398364
vt 0.300834 0.398374
vt 0.248559 0.350560
vt 0.198616 0.355005
vt 0.252150 0.398283
vt 0.212876 0.398133
vt 0.248780 0.445995
vt 0.199021 0.441068
vt 0.300795 0.445983
vt 0.300752 0.496596
vt 0.245243 0.496448
vt 0.193601 0.496249
vt 0.352809 0.446082
vt 0.402576 0.441238
vt 0.407905 0.496427
vt 0.356262 0.496540
vt 0.352419 0.547029
vt 0.300710 0.547260
vt 0.402079 0.551569
vt 0.387648 0.594350
vt 0.348719 0.594884
vt 0.300671 0.595085
vt 0.249002 0.546943
vt 0.199335 0.551400
vt 0.252622 0.594804
vt 0.213695 0.594205
vt 0.249346 0.642629
vt 0.200004 0.636168
vt 0.300630 0.643291
vt 0.300587 0.695206
vt 0.245639 0.693083
vt 0.193832 0.689705
vt 0.351916 0.642715
vt 0.401269 0.636335
vt 0.407352 0.689882
vt 0.355539 0.693174
vt 0.352827 0.744270
vt 0.300543 0.747908
vt 0.403304 0.742855
vt 0.392952 0.782523
vt 0.353438 0.794144
vt 0.300501 0.799370
vt 0.248266 0.744183
vt 0.197792 0.742684
vt 0.247572 0.794056
vt 0.208078 0.782369
vt 0.446124 0.013458
vt 0.449486 0.063250
vt 0.500463 0.011708
vt 0.500211 0.063729
vt 0.498470 0.119081
vt 0.446941 0.114895
vt 0.553256 0.019916
vt 0.551047 0.070499
vt 0.592137 0.033328
vt 0.600847 0.073748
vt 0.602120 0.127229
vt 0.550864 0.123222
vt 0.543138 0.175399
vt 0.492101 0.174229
vt 0.592766 0.179903
vt 0.577985 0.218517
vt 0.537589 0.225780
vt 0.484421 0.225834
vt 0.442419 0.166815
vt 0.431539 0.216084
vt 0.010140 0.032843
vt 0.049043 0.019495
vt 0.051168 0.070082
vt 0.001363 0.073248
vt 0.101850 0.011376
vt 0.102016 0.063397
vt 0.103663 0.118752
vt 0.051263 0.122805
vt 0.000000 0.126727
vt 0.156186 0.013217
vt 0.152741 0.063002
vt 0.155199 0.114652
vt 0.159636 0.166580
vt 0.109940 0.173911
vt 0.170433 0.215866
vt 0.117535 0.225528
vt 0.058902 0.174995
vt 0.009267 0.179416
vt 0.064367 0.225386
vt 0.023984 0.218056
vn -0.577350 -0.577350 0.577350
vn -0.313219 -0.671526 0.671526
vn -0.329322 -0.329322 0.884926
vn -0.671526 -0.313219 0.671526
vn 0.000000 -0.707107 0.707107
vn -0.000000 -0.345160 0.938544
vn -0.000000 0.000000 1.000000
vn -0.345160 0.000000 0.938544
vn -0.707107 0.000000 0.707107
vn 0.313220 -0.671526 0.671526
vn 0.329322 -0.329322 0.884926
vn 0.577350 -0.577350 0.577350
vn 0.671526 -0.313220 0.671526
vn 0.707107 0.000000 0.707107
vn 0.345160 0.000000 0.938544
vn 0.329322 0.329322 0.884926
vn -0.000000 0.345160 0.938544
vn 0.671525 0.313220 0.671526
vn 0.577350 0.577350 0.577350
vn 0.313220 0.671525 0.671526
vn 0.000000 0.707107 0.707107
vn -0.329322 0.329322 0.884926
vn -0.671526 0.313220 0.671526
vn -0.313220 0.671526 0.671526
vn -0.577350 0.577350 0.577350
vn -0.329322 0.884926 0.329322
vn -0.671526 0.671526 0.313219
vn -0.000000 0.938544 0.345160
vn -0.000000 1.000000 -0.000000
vn -0.345160 0.938544 -0.000000
vn -0.707107 0.707107 -0.000000
vn 0.329322 0.884926 0.329322
vn 0.671526 0.671526 0.313220
vn 0.707107 0.707107 0.000000
vn 0.345160 0.938544 -0.000000
vn 0.329322 0.884926 -0.329322
vn -0.000000 0.938544 -0.345160
vn 0.671526 0.671526 -0.313220
vn 0.577350 0.577350 -0.577350
vn 0.313220 0.671526 -0.671526
vn 0.000000 0.707107 -0.707107
vn -0.329322 0.884926 -0.329322
vn -0.671526 0.671526 -0.313219
vn -0.313219 0.671526 -0.671526
vn -0.577350 0.577350 -0.577350
vn -0.329322 0.329322 -0.884926
vn -0.671526 0.313219 -0.671526
vn -0.000000 0.345160 -0.938544
vn -0.000000 0.000000 -1.000000
vn -0.345160 0.000000 -0.938544
vn -0.707107 -0.000000 -0.707107
vn 0.329322 0.329322 -0.884926
vn 0.671526 0.313220 -0.671526
vn 0.707107 -0.000000 -0.707107
vn 0.345160 0.000000 -0.938544
vn 0.329322 -0.329322 -0.884926
vn -0.000000 -0.345160 -0.938544
vn 0.671526 -0.313220 -0.671526
vn 0.577350 -0.577350 -0.577350
vn 0.313220 -0.671526 -0.671526
vn -0.000000 -0.707107 -0.707107
vn -0.329322 -0.329322 -0.884926
vn -0.671526 -0.313219 -0.671526
vn -0.313219 -0.671526 -0.671526
vn -0.577350 -0.577350 -0.577350
vn -0.329322 -0.884926 -0.329322
vn -0.671526 -0.671526 -0.313219
vn -0.000000 -0.938544 -0.345160
vn -0.000000 -1.000000 0.000000
vn -0.345160 -0.938544 0.000000
vn -0.707107 -0.707107 0.000000
vn 0.329322 -0.884926 -0.329322
vn 0.671526 -0.671526 -0.313220
vn 0.707107 -0.707107 0.000000
vn 0.345160 -0.938544 0.000000
vn 0.329322 -0.884926 0.329322
vn -0.000000 -0.938544 0.345160
vn 0.671526 -0.671525 0.313220
vn -0.329322 -0.884926 0.329322
vn -0.671526 -0.671526 0.313219
vn 0.884926 -0.329322 0.329322
vn 0.938544 -0.345160 0.000000
vn 1.000000 -0.000000 0.000000
vn 0.938544 -0.000000 0.345160
vn 0.884926 -0.329322 -0.329322
vn 0.938544 -0.000000 -0.345160
vn 0.884926 0.329322 -0.329322
vn 0.938544 0.345160 0.000000
vn 0.884926 0.329322 0.329322
vn -0.884926 -0.329322 -0.329322
vn -0.938544 -0.345160 -0.000000
vn -1.000000 0.000000 -0.000000
vn -0.938544 0.000000 -0.345160
vn -0.884926 -0.329322 0.329322
vn -0.938544 0.000000 0.345160
vn -0.884926 0.329322 0.329322
vn -0.938544 0.345160 0.000000
vn -0.884926 0.329322 -0.329322
s 1
g polySurface3 pCube4
usemtl initialShadingGroup
f 1/1/1 75/2/2 27/3/3 82/4/4
f 75/2/2 15/5/5 51/6/6 27/3/3
f 27/3/3 51/6/6 21/7/7 54/8/8
f 82/4/4 27/3/3 54/8/8 18/9/9
f 15/5/5 76/10/10 28/11/11 51/6/6
f 76/10/10 2/12/12 77/13/13 28/11/11
f 28/11/11 77/13/13 16/14/14 52/15/15
f 51/6/6 28/11/11 52/15/15 21/7/7
f 21/7/7 52/15/15 29/16/16 53/17/17
f 52/15/15 16/14/14 78/18/18 29/16/16
f 29/16/16 78/18/18 4/19/19 79/20/20
f 53/17/17 29/16/16 79/20/20 17/21/21
f 18/9/9 54/8/8 30/22/22 81/23/23
f 54/8/8 21/7/7 53/17/17 30/22/22
f 30/22/22 53/17/17 17/21/21 80/24/24
f 81/23/23 30/22/22 80/24/24 3/25/25
f 3/25/25 80/24/24 31/26/26 88/27/27
f 80/24/24 17/21/21 55/28/28 31/26/26
f 31/26/26 55/28/28 22/29/29 58/30/30
f 88/27/27 31/26/26 58/30/30 9/31/31
f 17/21/21 79/20/20 32/32/32 55/28/28
f 79/20/20 4/19/19 83/33/33 32/32/32
f 32/32/32 83/33/33 19/34/34 56/35/35
f 55/28/28 32/32/32 56/35/35 22/29/29
f 22/29/29 56/35/35 33/36/36 57/37/37
f 56/35/35 19/34/34 84/38/38 33/36/36
f 33/36/36 84/38/38 6/39/39 85/40/40
f 57/37/37 33/36/36 85/40/40 20/41/41
f 9/31/31 58/30/30 34/42/42 87/43/43
f 58/30/30 22/29/29 57/37/37 34/42/42
f 34/42/42 57/37/37 20/41/41 86/44/44
f 87/43/43 34/42/42 86/44/44 5/45/45
f 5/45/45 86/44/44 35/46/46 94/47/47
f 86/44/44 20/41/41 59/48/48 35/46/46
f 35/46/46 59/48/48 23/49/49 62/50/50
f 94/47/47 35/46/46 62/50/50 12/51/51
f 20/41/41 85/40/40 36/52/52 59/48/48
f 85/40/40 6/39/39 89/53/53 36/52/52
f 36/52/52 89/53/53 10/54/54 60/55/55
f 59/48/48 36/52/52 60/55/55 23/49/49
f 23/49/49 60/55/55 37/56/56 61/57/57
f 60/55/55 10/54/54 90/58/58 37/56/56
f 37/56/56 90/58/58 8/59/59 91/60/60
f 61/57/57 37/56/56 91/60/60 11/61/61
f 12/51/51 62/50/50 38/62/62 93/63/63
f 62/50/50 23/49/49 61/57/57 38/62/62
f 38/62/62 61/57/57 11/61/61 92/64/64
f 93/63/63 38/62/62 92/64/64 7/65/65
f 7/65/65 92/64/64 39/66/66 98/67/67
f 92/64/64 11/61/61 63/68/68 39/66/66
f 39/66/66 63/68/68 24/69/69 66/70/70
f 98/67/67 39/66/66 66/70/70 14/71/71
f 11/61/61 91/60/60 40/72/72 63/68/68
f 91/60/60 8/59/59 95/73/73 40/72/72
f 40/72/72 95/73/73 13/74/74 64/75/75
f 63/68/68 40/72/72 64/75/75 24/69/69
f 24/69/69 64/75/75 41/76/76 65/77/77
f 64/75/75 13/74/74 96/78/78 41/76/76
f 41/76/76 96/78/78 2/79/12 76/80/10
f 65/77/77 41/76/76 76/80/10 15/81/5
f 14/71/71 66/70/70 42/82/79 97/83/80
f 66/70/70 24/69/69 65/77/77 42/82/79
f 42/82/79 65/77/77 15/81/5 75/84/2
f 97/83/80 42/82/79 75/84/2 1/85/1
f 2/12/12 96/86/78 43/87/81 77/13/13
f 96/86/78 13/88/74 67/89/82 43/87/81
f 43/87/81 67/89/82 25/90/83 70/91/84
f 77/13/13 43/87/81 70/91/84 16/14/14
f 13/88/74 95/92/73 44/93/85 67/89/82
f 95/92/73 8/94/59 90/95/58 44/93/85
f 44/93/85 90/95/58 10/96/54 68/97/86
f 67/89/82 44/93/85 68/97/86 25/90/83
f 25/90/83 68/97/86 45/98/87 69/99/88
f 68/97/86 10/96/54 89/100/53 45/98/87
f 45/98/87 89/100/53 6/101/39 84/102/38
f 69/99/88 45/98/87 84/102/38 19/103/34
f 16/14/14 70/91/84 46/104/89 78/18/18
f 70/91/84 25/90/83 69/99/88 46/104/89
f 46/104/89 69/99/88 19/103/34 83/105/33
f 78/18/18 46/104/89 83/105/33 4/19/19
f 7/106/65 98/107/67 47/108/90 93/109/63
f 98/107/67 14/110/71 71/111/91 47/108/90
f 47/108/90 71/111/91 26/112/92 74/113/93
f 93/109/63 47/108/90 74/113/93 12/114/51
f 14/110/71 97/115/80 48/116/94 71/111/91
f 97/115/80 1/1/1 82/4/4 48/116/94
f 48/116/94 82/4/4 18/9/9 72/117/95
f 71/111/91 48/116/94 72/117/95 26/112/92
f 26/112/92 72/117/95 49/118/96 73/119/97
f 72/117/95 18/9/9 81/23/23 49/118/96
f 49/118/96 81/23/23 3/25/25 88/120/27
f 73/119/97 49/118/96 88/120/27 9/121/31
f 12/114/51 74/113/93 50/122/98 94/123/47
f 74/113/93 26/112/92 73/119/97 50/122/98
f 50/122/98 73/119/97 9/121/31 87/124/43
f 94/123/47 50/122/98 87/124/43 5/125/45
