# This file uses centimeters as units for non-parametric coordinates.

mtllib Ship.mtl
g default
v 0.000000 1.507496 -3.984565
v 0.000000 0.492504 -3.984565
v 0.000000 -0.017840 -2.670265
v 0.000000 -0.017840 2.670265
v 0.000000 0.492504 3.984565
v 0.000000 1.507496 3.984565
v 0.000000 2.007257 -2.644579
v 0.000000 2.007257 2.676859
v -2.004362 -0.017840 2.670264
v -2.004362 2.007258 2.676858
v -2.004362 2.007258 -2.644578
v -2.004362 -0.017840 -2.670264
v -1.998753 0.492504 3.984565
v -1.998753 1.507496 3.984565
v -1.998753 1.507496 -3.984565
v -1.998753 0.492504 -3.984565
v -0.999376 1.507496 -3.984565
v -0.999376 0.492504 -3.984565
v -1.002181 -0.017840 -2.670264
v -1.002181 -0.017840 2.670264
v -0.999376 0.492504 3.984565
v -0.999376 1.507496 3.984565
v -0.927935 2.007257 2.676857
v -0.925727 2.007257 -2.644577
v -2.977806 0.278822 -1.891984
v -2.977806 0.278822 1.891984
v -2.977806 1.721179 -1.891984
v -2.977806 1.721179 1.891984
v -2.074275 0.128362 2.614369
v -2.074275 1.871638 2.614369
v -2.907893 0.382411 1.947880
v -2.907893 1.617589 1.947880
v -2.074275 0.128362 2.139972
v -2.074275 1.871638 2.139972
v -2.907893 0.382411 1.473483
v -2.907893 1.617589 1.473483
v -1.031381 1.958305 -2.775831
v -1.898709 1.958305 -2.775831
v -1.894198 1.556448 -3.853312
v -1.090602 1.556448 -3.853312
v -1.499490 2.498411 -3.087031
v -1.931072 2.259276 -3.087031
v -1.934854 2.271396 -4.164512
v -1.534985 2.492959 -4.164512
v -1.678809 2.822040 -3.482534
v -2.110391 2.582905 -3.482535
v -2.114173 2.595025 -4.560015
v -1.714303 2.816588 -4.560015
v 2.004362 -0.017840 2.670264
v 2.004362 2.007258 2.676858
v 2.004362 2.007258 -2.644578
v 2.004362 -0.017840 -2.670264
v 1.998753 0.492504 3.984565
v 1.998753 1.507496 3.984565
v 1.998753 1.507496 -3.984565
v 1.998753 0.492504 -3.984565
v 0.999376 1.507496 -3.984565
v 0.999376 0.492504 -3.984565
v 1.002181 -0.017840 -2.670264
v 1.002181 -0.017840 2.670264
v 0.999376 0.492504 3.984565
v 0.999376 1.507496 3.984565
v 0.927935 2.007257 2.676857
v 0.925727 2.007257 -2.644577
v 2.977806 0.278822 -1.891984
v 2.977806 0.278822 1.891984
v 2.977806 1.721179 -1.891984
v 2.977806 1.721179 1.891984
v 2.074275 0.128362 2.614369
v 2.074275 1.871638 2.614369
v 2.907893 0.382411 1.947880
v 2.907893 1.617589 1.947880
v 2.074275 0.128362 2.139972
v 2.074275 1.871638 2.139972
v 2.907893 0.382411 1.473483
v 2.907893 1.617589 1.473483
v 1.031381 1.958305 -2.775831
v 1.898709 1.958305 -2.775831
v 1.894198 1.556448 -3.853312
v 1.090602 1.556448 -3.853312
v 1.499490 2.498411 -3.087031
v 1.931072 2.259276 -3.087031
v 1.934854 2.271396 -4.164512
v 1.534985 2.492959 -4.164512
v 1.678809 2.822040 -3.482534
v 2.110391 2.582905 -3.482535
v 2.114173 2.595025 -4.560015
v 1.714303 2.816588 -4.560015
v -0.826063 2.590852 1.344647
v 0.826063 2.590852 1.344647
v -0.639584 2.384386 -2.052886
v 0.639584 2.384386 -2.052886
v -0.807839 2.552640 -1.011785
v 0.807839 1.744802 -2.326767
v -0.807839 1.744802 -2.326767
v 1.043374 1.764789 1.698381
v 0.000000 2.808163 1.698381
v -1.043374 1.764789 1.698381
v 0.807839 2.552640 -1.011785
v 0.000000 2.552640 -2.326767
v 0.000000 1.764789 2.319516
v 0.000000 2.848085 -1.011785
v 0.000000 1.744802 -2.807685
v 1.103283 1.744802 -1.011785
v -1.103283 1.744802 -1.011785
v 0.529431 2.294221 2.016971
v -0.529431 2.294221 2.016971
v -0.529431 3.003884 0.861796
v 0.529431 3.003884 0.861796
v 0.409915 2.704178 -1.679036
v -0.409915 2.704178 -1.679036
v -0.409915 2.154717 -2.573437
v 0.409915 2.154717 -2.573437
v 0.959377 2.154717 -1.679036
v 1.239095 2.294221 0.861796
v -1.239094 2.294221 0.861796
v -0.959377 2.154717 -1.679036
v 0.568857 1.764789 2.163659
v 0.000000 2.333646 2.163659
v -0.568857 1.764789 2.163659
v -0.000000 3.094000 0.925973
v 0.440441 2.773951 -1.011785
v 0.000000 2.773951 -1.728725
v -0.440441 2.773951 -1.011785
v -0.000000 2.185243 -2.687011
v 0.440441 1.744802 -2.687011
v -0.440441 1.744802 -2.687011
v 1.029149 1.744802 -1.728725
v 1.029149 2.185243 -1.011785
v 1.329210 1.764789 0.925973
v -1.329210 1.764789 0.925973
v -1.029149 2.185243 -1.011785
v -1.029149 1.744802 -1.728725
v 0.971563 2.254795 1.581488
v 0.490005 2.736352 1.581488
v -0.490005 2.736352 1.581488
v -0.971563 2.254795 1.581488
v 0.971563 2.736352 0.797620
v 0.752238 2.497040 -1.629347
v 0.379390 2.497040 -2.236262
v -0.379390 2.497040 -2.236262
v -0.752238 2.497040 -1.629347
v -0.971563 2.736352 0.797620
v 0.752238 2.124192 -2.236262
v -0.752238 2.124192 -2.236262
vt 0.500000 0.500000
vt 0.625000 0.000000
vt 0.875000 0.000000
vt 0.875000 0.250000
vt 0.625000 0.250000
vt 0.625000 0.000000
vt 0.625000 0.250000
vt 0.625000 0.250000
vt 0.625000 0.000000
vt 0.625000 0.500000
vt 0.625000 0.750000
vt 0.625000 0.750000
vt 0.625000 0.500000
vt 0.562500 0.750000
vt 0.500000 0.750000
vt 0.500000 0.750000
vt 0.562500 0.750000
vt 0.500000 1.000000
vt 0.562500 1.000000
vt 0.500000 0.000000
vt 0.500000 0.000000
vt 0.562500 0.000000
vt 0.562500 0.000000
vt 0.500000 0.250000
vt 0.562500 0.250000
vt 0.625000 1.000000
vt 0.560893 0.255396
vt 0.561910 0.494728
vt 0.562500 0.500000
vt 0.875000 0.000000
vt 0.875000 0.250000
vt 0.625000 0.250000
vt 0.625000 0.000000
vt 0.625000 0.000000
vt 0.625000 0.250000
vt 0.625000 0.000000
vt 0.625000 0.250000
vt 0.625000 0.000000
vt 0.625000 0.250000
vt 0.500000 0.500000
vt 0.500000 0.500000
vt 0.500000 0.250000
vt 0.561910 0.494728
vt 0.625000 0.500000
vt 0.625000 0.500000
vt 0.562500 0.500000
vt 0.561910 0.494728
vt 0.625000 0.500000
vt 0.625000 0.500000
vt 0.562500 0.500000
vt 0.561910 0.494728
vt 0.625000 0.500000
vt 0.625000 0.500000
vt 0.562500 0.500000
vt 0.625000 0.000000
vt 0.875000 0.000000
vt 0.875000 0.250000
vt 0.625000 0.250000
vt 0.625000 0.000000
vt 0.625000 0.250000
vt 0.625000 0.250000
vt 0.625000 0.000000
vt 0.625000 0.500000
vt 0.625000 0.750000
vt 0.625000 0.750000
vt 0.625000 0.500000
vt 0.562500 0.750000
vt 0.500000 0.750000
vt 0.500000 0.750000
vt 0.562500 0.750000
vt 0.500000 1.000000
vt 0.562500 1.000000
vt 0.500000 0.000000
vt 0.500000 0.000000
vt 0.562500 0.000000
vt 0.562500 0.000000
vt 0.500000 0.250000
vt 0.562500 0.250000
vt 0.625000 1.000000
vt 0.560893 0.255396
vt 0.561910 0.494728
vt 0.625000 0.500000
vt 0.625000 0.500000
vt 0.562500 0.500000
vt 0.875000 0.000000
vt 0.875000 0.250000
vt 0.625000 0.250000
vt 0.625000 0.000000
vt 0.625000 0.000000
vt 0.625000 0.250000
vt 0.625000 0.000000
vt 0.625000 0.250000
vt 0.625000 0.000000
vt 0.625000 0.250000
vt 0.561910 0.494728
vt 0.562500 0.500000
vt 0.500000 0.500000
vt 0.500000 0.500000
vt 0.500000 0.250000
vt 0.500000 0.500000
vt 0.625000 0.500000
vt 0.561910 0.494728
vt 0.625000 0.500000
vt 0.562500 0.500000
vt 0.625000 0.500000
vt 0.561910 0.494728
vt 0.625000 0.500000
vt 0.562500 0.500000
vt 0.500000 0.125000
vt 0.562500 0.125000
vt 0.562500 0.187500
vt 0.500000 0.187500
vt 0.625000 0.125000
vt 0.625000 0.187500
vt 0.625000 0.250000
vt 0.562500 0.250000
vt 0.500000 0.250000
vt 0.375000 0.125000
vt 0.437500 0.125000
vt 0.437500 0.187500
vt 0.375000 0.187500
vt 0.437500 0.250000
vt 0.375000 0.250000
vt 0.437500 0.312500
vt 0.375000 0.312500
vt 0.500000 0.312500
vt 0.500000 0.375000
vt 0.437500 0.375000
vt 0.375000 0.375000
vt 0.562500 0.312500
vt 0.625000 0.312500
vt 0.625000 0.375000
vt 0.562500 0.375000
vt 0.562500 0.437500
vt 0.500000 0.437500
vt 0.625000 0.437500
vt 0.625000 0.500000
vt 0.562500 0.500000
vt 0.500000 0.500000
vt 0.437500 0.437500
vt 0.375000 0.437500
vt 0.437500 0.500000
vt 0.375000 0.500000
vt 0.437500 0.562500
vt 0.375000 0.562500
vt 0.500000 0.562500
vt 0.500000 0.625000
vt 0.437500 0.625000
vt 0.375000 0.625000
vt 0.562500 0.562500
vt 0.625000 0.562500
vt 0.625000 0.625000
vt 0.562500 0.625000
vt 0.750000 0.125000
vt 0.812500 0.125000
vt 0.812500 0.187500
vt 0.750000 0.187500
vt 0.875000 0.125000
vt 0.875000 0.187500
vt 0.875000 0.250000
vt 0.812500 0.250000
vt 0.750000 0.250000
vt 0.687500 0.125000
vt 0.687500 0.187500
vt 0.687500 0.250000
vt 0.250000 0.125000
vt 0.312500 0.125000
vt 0.312500 0.187500
vt 0.250000 0.187500
vt 0.312500 0.250000
vt 0.250000 0.250000
vt 0.125000 0.125000
vt 0.187500 0.125000
vt 0.187500 0.187500
vt 0.125000 0.187500
vt 0.187500 0.250000
vt 0.125000 0.250000
vn -1.000000 0.000000 0.000000
vn -1.000000 0.000000 0.000000
vn -1.000000 0.000000 0.000000
vn -1.000000 0.000000 0.000000
vn -0.999991 -0.000009 0.004279
vn -0.999991 -0.000009 0.004279
vn -0.999991 -0.000009 0.004279
vn -0.999991 -0.000009 0.004279
vn -0.999991 0.000036 -0.004227
vn -0.999991 0.000036 -0.004227
vn -0.999991 0.000036 -0.004227
vn -0.999991 0.000036 -0.004227
vn 0.000000 -0.997079 -0.076378
vn 0.000000 -0.932190 -0.361970
vn 0.000000 -0.932190 -0.361970
vn 0.000000 -0.997079 -0.076378
vn 0.000000 -0.997079 0.076378
vn 0.000000 -0.997079 0.076378
vn 0.000000 -0.932190 0.361970
vn 0.000000 -0.932190 0.361970
vn 0.000000 0.000000 1.000000
vn 0.000000 0.000000 1.000000
vn 0.000000 0.000000 1.000000
vn 0.000000 0.000000 1.000000
vn 0.000000 -0.997091 -0.076223
vn 0.000000 -0.932190 -0.361970
vn 0.000000 -0.997091 0.076223
vn 0.000000 -0.932190 0.361970
vn 0.000000 0.000000 1.000000
vn 0.000000 0.000000 1.000000
vn 0.000000 0.934110 0.356985
vn 0.000000 0.997182 0.075018
vn -0.077947 0.995531 0.053309
vn 0.000000 0.934110 0.356985
vn -0.484629 0.874644 0.011540
vn -0.484629 0.874643 0.011540
vn -0.484630 0.874644 0.011540
vn -0.484629 0.874643 0.011540
vn -0.291518 -0.956565 0.000000
vn -0.291518 -0.956565 0.000000
vn -0.291518 -0.956565 0.000000
vn -0.291518 -0.956565 0.000000
vn -0.618086 0.005823 -0.786089
vn -0.618086 0.005823 -0.786089
vn -0.618086 0.005823 -0.786089
vn -0.618086 0.005823 -0.786089
vn -0.092046 0.995755 0.000000
vn -0.281960 0.959426 0.000000
vn -0.281960 0.959426 0.000000
vn -0.624463 0.000000 0.781055
vn -0.624463 0.000000 0.781054
vn -0.624463 0.000000 0.781054
vn -0.624463 0.000000 0.781055
vn -0.646226 -0.001335 0.763145
vn -0.646226 -0.001335 0.763145
vn -0.646226 -0.001335 0.763145
vn -0.646226 -0.001335 0.763145
vn -0.624464 -0.000002 0.781054
vn -0.624464 -0.000002 0.781054
vn -0.624464 -0.000002 0.781054
vn -0.624464 -0.000002 0.781054
vn -0.624464 0.000000 0.781054
vn -0.624464 0.000000 0.781054
vn -0.624464 0.000000 0.781054
vn -0.624464 0.000000 0.781054
vn -0.622124 -0.021569 0.782621
vn -0.622124 -0.021569 0.782621
vn -0.622124 -0.021569 0.782621
vn -0.622124 -0.021569 0.782621
vn -1.000000 0.000000 0.000000
vn -1.000000 0.000000 0.000000
vn -1.000000 0.000000 0.000000
vn -1.000000 0.000000 0.000000
vn 0.291518 0.956565 0.000000
vn 0.291518 0.956565 0.000000
vn 0.291518 0.956565 0.000000
vn 0.291518 0.956565 0.000000
vn 1.000000 0.000000 0.000000
vn 1.000000 0.000000 0.000000
vn 1.000000 0.000000 0.000000
vn 1.000000 0.000000 0.000000
vn 0.291518 -0.956565 0.000000
vn 0.291518 -0.956565 0.000000
vn 0.291518 -0.956565 0.000000
vn 0.291518 -0.956565 0.000000
vn -0.000000 0.936956 -0.349447
vn -0.000000 0.936956 -0.349447
vn -0.000000 0.936956 -0.349447
vn -0.000000 0.936956 -0.349447
vn -0.000000 0.934110 0.356985
vn -0.000000 0.934110 0.356985
vn 0.000000 0.000000 -1.000000
vn 0.000000 0.000000 -1.000000
vn 0.000000 0.000000 -1.000000
vn 0.000000 0.000000 -1.000000
vn 0.000000 0.000000 -1.000000
vn 0.000000 0.000000 -1.000000
vn 0.000000 0.000000 -1.000000
vn 0.000000 0.000000 -1.000000
vn 0.000000 1.000000 0.000000
vn 0.000000 1.000000 -0.000000
vn 0.000000 1.000000 -0.000000
vn 0.000000 0.936956 -0.349446
vn 0.000000 0.936956 -0.349446
vn 0.000000 0.936956 -0.349446
vn 0.000000 0.936957 -0.349446
vn 0.000000 0.936956 -0.349447
vn 0.000000 0.936956 -0.349447
vn 0.000000 0.936956 -0.349447
vn 0.000000 0.936956 -0.349447
vn 0.000000 0.936956 -0.349448
vn 0.000000 0.936956 -0.349448
vn 0.000000 0.936956 -0.349448
vn 0.000000 0.936956 -0.349448
vn 0.000000 0.936956 -0.349447
vn 0.000000 0.936956 -0.349447
vn 0.000000 0.936956 -0.349447
vn 0.000000 0.936956 -0.349447
vn -0.101624 0.551986 0.827638
vn -0.101624 0.551986 0.827638
vn -0.101624 0.551986 0.827638
vn -0.101624 0.551986 0.827638
vn -0.997837 -0.064753 0.011373
vn -0.990493 -0.137256 0.009192
vn -0.949146 -0.314817 0.003539
vn -0.997837 -0.064753 0.011373
vn 0.061864 -0.336028 -0.939818
vn 0.141314 -0.424974 -0.894107
vn 0.158373 -0.443493 -0.882175
vn 0.061864 -0.336028 -0.939818
vn 0.866974 0.481346 -0.129084
vn 0.878079 0.470473 -0.087361
vn 0.870477 0.478193 -0.116627
vn 0.866974 0.481346 -0.129084
vn -0.353935 0.638768 0.683158
vn -0.353935 0.638768 0.683158
vn -0.353935 0.638768 0.683158
vn -0.353935 0.638768 0.683158
vn -0.873447 -0.486913 -0.002411
vn -0.873447 -0.486913 -0.002411
vn 0.353934 -0.638769 -0.683158
vn 0.353934 -0.638769 -0.683158
vn 0.890148 0.454574 -0.031624
vn 0.890148 0.454574 -0.031624
vn 1.000000 0.000000 0.000000
vn 1.000000 0.000000 0.000000
vn 1.000000 0.000000 0.000000
vn 1.000000 0.000000 0.000000
vn 0.999991 -0.000009 0.004279
vn 0.999991 -0.000009 0.004279
vn 0.999991 -0.000009 0.004279
vn 0.999991 -0.000009 0.004279
vn 0.999991 0.000036 -0.004227
vn 0.999991 0.000036 -0.004227
vn 0.999991 0.000036 -0.004227
vn 0.999991 0.000036 -0.004227
vn 0.000000 -0.997079 -0.076378
vn 0.000000 -0.997079 -0.076378
vn 0.000000 -0.932190 -0.361970
vn 0.000000 -0.932190 -0.361970
vn 0.000000 -0.997079 0.076378
vn 0.000000 -0.997079 0.076378
vn 0.000000 -0.932190 0.361970
vn 0.000000 -0.932190 0.361970
vn 0.000000 0.000000 1.000000
vn 0.000000 0.000000 1.000000
vn 0.000000 0.000000 1.000000
vn 0.000000 0.000000 1.000000
vn 0.000000 -0.997091 -0.076223
vn 0.000000 -0.932190 -0.361970
vn 0.000000 -0.997091 0.076223
vn 0.000000 -0.932190 0.361970
vn 0.000000 0.000000 1.000000
vn 0.000000 0.000000 1.000000
vn -0.000000 0.934110 0.356985
vn -0.000000 0.934110 0.356985
vn 0.077947 0.995531 0.053309
vn -0.000000 0.997182 0.075018
vn 0.484629 0.874644 0.011540
vn 0.484629 0.874644 0.011540
vn 0.484629 0.874644 0.011540
vn 0.484629 0.874644 0.011540
vn 0.291518 -0.956565 0.000000
vn 0.291518 -0.956565 0.000000
vn 0.291518 -0.956565 0.000000
vn 0.291518 -0.956565 0.000000
vn 0.618086 0.005823 -0.786089
vn 0.618086 0.005823 -0.786089
vn 0.618086 0.005823 -0.786089
vn 0.618086 0.005823 -0.786089
vn 0.092046 0.995755 0.000000
vn 0.281960 0.959426 0.000000
vn 0.281960 0.959426 0.000000
vn 0.624463 0.000000 0.781054
vn 0.624463 0.000000 0.781054
vn 0.624463 0.000000 0.781055
vn 0.624463 0.000000 0.781055
vn 0.646226 -0.001335 0.763145
vn 0.646226 -0.001335 0.763145
vn 0.646226 -0.001335 0.763145
vn 0.646226 -0.001335 0.763145
vn 0.624464 -0.000002 0.781054
vn 0.624464 -0.000002 0.781054
vn 0.624464 -0.000002 0.781054
vn 0.624464 -0.000002 0.781054
vn 0.624464 0.000000 0.781054
vn 0.624464 0.000000 0.781054
vn 0.624464 0.000000 0.781054
vn 0.624464 0.000000 0.781054
vn 0.622124 -0.021570 0.782622
vn 0.622124 -0.021570 0.782622
vn 0.622124 -0.021570 0.782622
vn 0.622124 -0.021570 0.782621
vn 1.000000 0.000000 0.000000
vn 1.000000 0.000000 0.000000
vn 1.000000 0.000000 0.000000
vn 1.000000 0.000000 0.000000
vn -0.291518 0.956565 0.000000
vn -0.291518 0.956565 0.000000
vn -0.291518 0.956565 0.000000
vn -0.291518 0.956565 0.000000
vn -1.000000 0.000000 0.000000
vn -1.000000 0.000000 0.000000
vn -1.000000 0.000000 0.000000
vn -1.000000 0.000000 0.000000
vn -0.291518 -0.956565 0.000000
vn -0.291518 -0.956565 0.000000
vn -0.291518 -0.956565 0.000000
vn -0.291518 -0.956565 0.000000
vn 0.000000 0.936956 -0.349447
vn 0.000000 0.936956 -0.349447
vn 0.000000 0.936956 -0.349447
vn 0.000000 0.936956 -0.349447
vn 0.000000 0.934110 0.356985
vn 0.000000 0.934110 0.356985
vn 0.000000 0.000000 -1.000000
vn 0.000000 0.000000 -1.000000
vn 0.000000 0.000000 -1.000000
vn 0.000000 0.000000 -1.000000
vn 0.000000 0.000000 -1.000000
vn 0.000000 0.000000 -1.000000
vn 0.000000 0.000000 -1.000000
vn 0.000000 0.000000 -1.000000
vn -0.000000 1.000000 0.000000
vn 0.000000 1.000000 -0.000000
vn 0.000000 1.000000 -0.000000
vn -0.000000 0.936957 -0.349446
vn -0.000000 0.936957 -0.349446
vn -0.000000 0.936957 -0.349446
vn -0.000000 0.936957 -0.349446
vn -0.000000 0.936956 -0.349447
vn -0.000000 0.936956 -0.349447
vn -0.000000 0.936956 -0.349447
vn -0.000000 0.936956 -0.349447
vn 0.000000 0.936956 -0.349447
vn 0.000000 0.936956 -0.349447
vn 0.000000 0.936956 -0.349447
vn 0.000000 0.936956 -0.349447
vn -0.000001 0.936956 -0.349446
vn -0.000001 0.936956 -0.349446
vn -0.000001 0.936956 -0.349446
vn -0.000001 0.936956 -0.349446
vn 0.101624 0.551986 0.827638
vn 0.101624 0.551986 0.827638
vn 0.101624 0.551986 0.827638
vn 0.101624 0.551986 0.827638
vn 0.997837 -0.064753 0.011373
vn 0.997837 -0.064753 0.011373
vn 0.949146 -0.314818 0.003539
vn 0.990493 -0.137256 0.009192
vn -0.061864 -0.336028 -0.939818
vn -0.061864 -0.336028 -0.939818
vn -0.158373 -0.443493 -0.882175
vn -0.141314 -0.424974 -0.894107
vn -0.866974 0.481346 -0.129085
vn -0.866974 0.481346 -0.129085
vn -0.870477 0.478193 -0.116627
vn -0.878079 0.470473 -0.087361
vn 0.353935 0.638768 0.683158
vn 0.353935 0.638768 0.683158
vn 0.353935 0.638768 0.683158
vn 0.353935 0.638768 0.683158
vn 0.873447 -0.486913 -0.002411
vn 0.873447 -0.486913 -0.002411
vn -0.353934 -0.638769 -0.683158
vn -0.353934 -0.638769 -0.683158
vn -0.890148 0.454574 -0.031624
vn -0.890148 0.454574 -0.031624
vn 0.000000 0.274732 0.961521
vn 0.483823 0.266377 0.833642
vn 0.456497 0.456497 0.763689
vn 0.000000 0.501960 0.864891
vn 0.820134 0.233727 0.522257
vn 0.790278 0.371207 0.487510
vn 0.651293 0.651293 0.389404
vn 0.371207 0.790278 0.487510
vn -0.000000 0.843496 0.537135
vn -0.820134 0.233727 0.522257
vn -0.483823 0.266376 0.833642
vn -0.456497 0.456497 0.763689
vn -0.790278 0.371207 0.487510
vn -0.371207 0.790278 0.487510
vn -0.651293 0.651293 0.389403
vn -0.335825 0.941924 0.000596
vn -0.706171 0.707455 -0.028800
vn -0.000000 0.999502 0.031560
vn 0.000000 0.992437 -0.122756
vn -0.333177 0.934355 -0.126387
vn -0.701760 0.700458 -0.129967
vn 0.335825 0.941924 0.000596
vn 0.706171 0.707455 -0.028800
vn 0.701760 0.700458 -0.129967
vn 0.333177 0.934355 -0.126387
vn 0.342261 0.915741 -0.210419
vn -0.000000 0.974196 -0.225703
vn 0.693198 0.693198 -0.197365
vn 0.651293 0.651293 -0.389404
vn 0.371207 0.790278 -0.487510
vn -0.000000 0.843496 -0.537135
vn -0.342261 0.915741 -0.210419
vn -0.693198 0.693198 -0.197365
vn -0.371207 0.790278 -0.487510
vn -0.651293 0.651293 -0.389404
vn -0.456497 0.456497 -0.763689
vn -0.790278 0.371207 -0.487510
vn -0.000000 0.501960 -0.864891
vn 0.000000 0.274733 -0.961521
vn -0.483823 0.266377 -0.833642
vn -0.820134 0.233727 -0.522257
vn 0.456497 0.456497 -0.763689
vn 0.790278 0.371207 -0.487510
vn 0.820133 0.233727 -0.522257
vn 0.483823 0.266377 -0.833642
vn 0.980187 0.161514 -0.114655
vn 0.956448 0.190010 -0.221592
vn 0.915741 0.342261 -0.210420
vn 0.935221 0.332558 -0.121518
vn 0.983253 0.178651 0.036015
vn 0.941401 0.337246 0.005319
vn -0.980187 0.161514 -0.114655
vn -0.983253 0.178651 0.036015
vn -0.941401 0.337246 0.005319
vn -0.935221 0.332558 -0.121518
vn -0.956448 0.190010 -0.221592
vn -0.915741 0.342260 -0.210419
s off
g Nave_enemiga
usemtl initialShadingGroup
f 26/2/1 28/5/2 27/4/3 25/3/4
f 9/6/5 13/9/6 14/8/7 10/7/8
f 11/10/9 15/13/10 16/12/11 12/11/12
s 1
f 19/14/13 18/17/14 2/16/15 3/15/16
f 4/18/17 20/19/18 19/14/13 3/15/16
f 5/20/19 21/23/20 20/22/18 4/21/17
s 2
f 6/24/21 22/25/22 21/23/23 5/20/24
s 1
f 12/11/25 16/12/26 18/17/14 19/14/13
f 20/19/18 9/26/27 12/11/25 19/14/13
f 21/23/20 13/9/28 9/6/27 20/22/18
s 2
f 22/25/22 14/8/29 13/9/30 21/23/23
s 3
f 22/25/31 23/27/32 10/7/33 14/8/34
s off
f 45/51/35 48/54/36 47/53/37 46/52/38
f 9/6/39 26/2/40 25/3/41 12/30/42
f 12/30/43 25/3/44 27/4/45 11/31/46
s 3
f 11/31/47 27/4/48 28/5/49 10/7/33
s off
f 34/32/50 36/35/51 35/34/52 33/33/53
f 10/7/54 30/37/55 29/36/56 9/6/57
f 9/6/58 29/36/59 31/38/60 26/2/61
f 26/2/62 31/38/63 32/39/64 28/5/65
f 28/5/66 32/39/67 30/37/68 10/7/69
f 30/37/70 34/32/71 33/33/72 29/36/73
f 29/36/74 33/33/75 35/34/76 31/38/77
f 31/38/78 35/34/79 36/35/80 32/39/81
f 32/39/82 36/35/83 34/32/84 30/37/85
f 24/28/86 7/41/87 1/40/88 17/29/89
s 3
f 23/27/32 22/25/31 6/24/90 8/42/91
s off
f 17/29/92 18/17/93 16/12/94 15/13/95
f 1/40/96 2/16/97 18/17/98 17/29/99
s 3
f 24/28/100 11/10/47 10/7/33 23/27/32
f 24/28/100 23/27/32 8/42/101 7/1/102
s off
f 24/28/103 37/43/104 38/44/105 11/10/106
f 11/10/107 38/44/108 39/45/109 15/13/110
f 15/13/111 39/45/112 40/46/113 17/29/114
f 17/29/115 40/46/116 37/43/117 24/28/118
f 37/43/119 41/47/120 42/48/121 38/44/122
s 4
f 38/44/123 42/48/124 43/49/125 39/45/126
s 5
f 39/45/127 43/49/128 44/50/129 40/46/130
s 6
f 40/46/131 44/50/132 41/47/133 37/43/134
s off
f 41/47/135 45/51/136 46/52/137 42/48/138
s 4
f 42/48/124 46/52/139 47/53/140 43/49/125
s 5
f 43/49/128 47/53/141 48/54/142 44/50/129
s 6
f 44/50/132 48/54/143 45/51/144 41/47/133
s off
f 66/55/145 65/56/146 67/57/147 68/58/148
f 49/59/149 50/60/150 54/61/151 53/62/152
f 51/63/153 52/64/154 56/65/155 55/66/156
s 7
f 59/67/157 3/68/158 2/69/159 58/70/160
f 4/71/161 3/68/158 59/67/157 60/72/162
f 5/73/163 4/74/161 60/75/162 61/76/164
s 8
f 6/77/165 5/73/166 61/76/167 62/78/168
s 7
f 52/64/169 59/67/157 58/70/160 56/65/170
f 60/72/162 59/67/157 52/64/169 49/79/171
f 61/76/164 60/75/162 49/59/171 53/62/172
s 8
f 62/78/168 61/76/167 53/62/173 54/61/174
s 9
f 62/78/175 54/61/176 50/60/177 63/80/178
s off
f 85/81/179 86/82/180 87/83/181 88/84/182
f 49/59/183 52/85/184 65/56/185 66/55/186
f 52/85/187 51/86/188 67/57/189 65/56/190
s 9
f 51/86/191 50/60/177 68/58/192 67/57/193
s off
f 74/87/194 73/88/195 75/89/196 76/90/197
f 50/60/198 49/59/199 69/91/200 70/92/201
f 49/59/202 66/55/203 71/93/204 69/91/205
f 66/55/206 68/58/207 72/94/208 71/93/209
f 68/58/210 50/60/211 70/92/212 72/94/213
f 70/92/214 69/91/215 73/88/216 74/87/217
f 69/91/218 71/93/219 75/89/220 73/88/221
f 71/93/222 72/94/223 76/90/224 75/89/225
f 72/94/226 70/92/227 74/87/228 76/90/229
f 64/95/230 57/96/231 1/97/232 7/98/233
s 9
f 63/80/178 8/99/234 6/77/235 62/78/175
s off
f 57/96/236 55/66/237 56/65/238 58/70/239
f 1/97/240 57/96/241 58/70/242 2/69/243
s 9
f 64/95/244 63/80/178 50/60/177 51/63/191
f 64/95/244 7/100/245 8/99/246 63/80/178
s off
f 64/95/247 51/63/248 78/101/249 77/102/250
f 51/63/251 55/66/252 79/103/253 78/101/254
f 55/66/255 57/96/256 80/104/257 79/103/258
f 57/96/259 64/95/260 77/102/261 80/104/262
f 77/102/263 78/101/264 82/105/265 81/106/266
s 10
f 78/101/267 79/103/268 83/107/269 82/105/270
s 11
f 79/103/271 80/104/272 84/108/273 83/107/274
s 12
f 80/104/275 77/102/276 81/106/277 84/108/278
s off
f 81/106/279 82/105/280 86/82/281 85/81/282
s 10
f 82/105/270 83/107/269 87/83/283 86/82/284
s 11
f 83/107/274 84/108/273 88/84/285 87/83/286
s 12
f 84/108/278 81/106/277 85/81/287 88/84/288
s 13
f 101/109/289 118/110/290 106/111/291 119/112/292
f 118/110/290 96/113/293 134/114/294 106/111/291
f 106/111/291 134/114/294 90/115/295 135/116/296
f 119/112/292 106/111/291 135/116/296 97/117/297
f 98/118/298 120/119/299 107/120/300 137/121/301
f 120/119/299 101/109/289 119/112/292 107/120/300
f 107/120/300 119/112/292 97/117/297 136/122/302
f 137/121/301 107/120/300 136/122/302 89/123/303
f 89/123/303 136/122/302 108/124/304 143/125/305
f 136/122/302 97/117/297 121/126/306 108/124/304
f 108/124/304 121/126/306 102/127/307 124/128/308
f 143/125/305 108/124/304 124/128/308 93/129/309
f 97/117/297 135/116/296 109/130/310 121/126/306
f 135/116/296 90/115/295 138/131/311 109/130/310
f 109/130/310 138/131/311 99/132/312 122/133/313
f 121/126/306 109/130/310 122/133/313 102/127/307
f 102/127/307 122/133/313 110/134/314 123/135/315
f 122/133/313 99/132/312 139/136/316 110/134/314
f 110/134/314 139/136/316 92/137/317 140/138/318
f 123/135/315 110/134/314 140/138/318 100/139/319
f 93/129/309 124/128/308 111/140/320 142/141/321
f 124/128/308 102/127/307 123/135/315 111/140/320
f 111/140/320 123/135/315 100/139/319 141/142/322
f 142/141/321 111/140/320 141/142/322 91/143/323
f 91/143/323 141/142/322 112/144/324 145/145/325
f 141/142/322 100/139/319 125/146/326 112/144/324
f 112/144/324 125/146/326 103/147/327 127/148/328
f 145/145/325 112/144/324 127/148/328 95/149/329
f 100/139/319 140/138/318 113/150/330 125/146/326
f 140/138/318 92/137/317 144/151/331 113/150/330
f 113/150/330 144/151/331 94/152/332 126/153/333
f 125/146/326 113/150/330 126/153/333 103/147/327
f 104/154/334 128/155/335 114/156/336 129/157/337
f 128/155/335 94/158/332 144/159/331 114/156/336
f 114/156/336 144/159/331 92/160/317 139/161/316
f 129/157/337 114/156/336 139/161/316 99/162/312
f 96/113/293 130/163/338 115/164/339 134/114/294
f 130/163/338 104/154/334 129/157/337 115/164/339
f 115/164/339 129/157/337 99/162/312 138/165/311
f 134/114/294 115/164/339 138/165/311 90/115/295
f 105/166/340 131/167/341 116/168/342 132/169/343
f 131/167/341 98/118/298 137/121/301 116/168/342
f 116/168/342 137/121/301 89/123/303 143/170/305
f 132/169/343 116/168/342 143/170/305 93/171/309
f 95/172/329 133/173/344 117/174/345 145/175/325
f 133/173/344 105/166/340 132/169/343 117/174/345
f 117/174/345 132/169/343 93/171/309 142/176/321
f 145/175/325 117/174/345 142/176/321 91/177/323
